<?xml version="1.0" encoding="utf-8"?>
<!-- Generator: Adobe Illustrator 25.0.0, SVG Export Plug-In . SVG Version: 6.00 Build 0)  -->
<svg version="1.1" id="Layer_1" xmlns="http://www.w3.org/2000/svg" xmlns:xlink="http://www.w3.org/1999/xlink" x="0px" y="0px"
	 width="126.1px" height="154.9px" viewBox="0 0 126.1 154.9" style="enable-background:new 0 0 126.1 154.9;" xml:space="preserve"
	>
<path d="M123.9,109.1c-0.1-0.2-0.2-0.5-0.3-0.8c-2.5-8.7-6.8-16.6-12.7-23.5c-0.1-0.2-0.3-0.3-0.4-0.5c-0.1-0.1-0.1-0.2-0.2-0.3
	c-0.1-0.2-0.3-0.3-0.4-0.5c-0.1-0.1-0.2-0.2-0.3-0.3c-3-3.3-6.7-6.4-6.7-6.4c-0.3-0.1-0.6-0.3-1-0.6c-0.5-0.4-0.9-0.7-1.4-1.1
	c-5-3.9-10.6-6.8-16.6-8.8c-0.7-0.2-1.3-0.6-2.1-1c19.9-13.4,20.7-37.9,8.6-52.5C77.8-2.1,55.5-4.4,40.6,8
	C33,14.4,28.5,22.6,27.9,32.6c-0.8,13.9,5,24.7,16.4,32.6c-4,1.8-7.8,3.2-11.4,5.2c-2.5,1.4-4.9,3-7.2,4.6c0,0-0.1,0.1-0.3,0.2
	c-0.7,0.5-2.3,1.7-4.4,3.5h-0.1c0,0,0,0-0.1-0.1c-1.3,1.2-3.1,2.9-4.6,4.6c0,0-0.1,0.1-0.1,0.1c0.1,0.1,0.2,0.1,0.3,0.2
	c-1.2,1.3-2.4,2.7-3.6,4.3c-2.2,2.8-4.3,6.1-6.3,9.9c-0.4,0.8-0.8,1.6-1.1,2.4c-1.1,2.3-2,4.8-2.8,7.5c-1.4,4.8-2.4,10.1-2.6,15.9
	c0,1.6,0,3.2,0,4.8c0,0.5,0,1,0,1.4h0c0.2,1.8,0.7,5.3,1.5,8.1c3.6,10,12.7,16.8,24.2,16.9c24.8,0.2,49.6,0.2,74.5,0
	c11.4-0.1,20.3-6.7,24-16.4c1.2-4.1,1.8-9.9,1.8-9.9c0-1.6,0-3.3,0-5c0.1,0,0.1-0.1,0.1-0.2C125.9,118.1,125.1,113.4,123.9,109.1z
	 M35.5,35.3C35.5,20,47.7,7.8,62.9,7.8c15.2,0,27.5,12.3,27.5,27.5c0,15.1-12.4,27.4-27.6,27.4C47.7,62.7,35.5,50.4,35.5,35.3z
	 M117.9,131.9c-0.8,8.2-8.6,14.9-17.3,15c-12.5,0.1-25.1,0-37.6,0s-24.9,0.1-37.4,0c-8.6-0.1-15.7-5.5-17.3-13.8
	c-0.9-4.5-0.7-9.3-0.1-13.9c1.6-13.7,7.6-25.3,17.9-34.4c13.3-11.8,29-16.5,46.5-13.2c21.2,4,35.4,16.6,42.7,36.9
	C118.1,116,118.7,123.9,117.9,131.9z"/>
</svg>
